<svg xmlns="http://www.w3.org/2000/svg" width="32" height="32" viewBox="0 0 64 64">
  <path fill="#FFF" d="M56.9,33H64v-2.1h-7.1c-0.1-1.3-0.2-2.7-0.5-4c-0.3-1.6-0.8-3.2-1.5-4.7c-0.6-1.5-1.4-2.9-2.3-4.2
    c-0.9-1.3-1.9-2.6-3-3.7c-1.1-1.1-2.4-2.2-3.7-3c-1.3-0.9-2.8-1.7-4.2-2.3c-1.5-0.6-3.1-1.1-4.7-1.5c-1.3-0.3-2.6-0.4-4-0.5V0H31
    v7.1c-1.3,0.1-2.7,0.2-4,0.5c-1.6,0.3-3.2,0.8-4.7,1.5c-1.5,0.6-2.9,1.4-4.2,2.3c-1.3,0.9-2.6,1.9-3.7,3c-1.1,1.1-2.2,2.4-3,3.7
    c-0.9,1.3-1.7,2.8-2.3,4.2c-0.6,1.5-1.1,3.1-1.5,4.7c-0.3,1.3-0.4,2.6-0.5,4H0V33h7.1c0.1,1.3,0.2,2.7,0.5,4
    c0.3,1.6,0.8,3.2,1.5,4.7c0.6,1.5,1.4,2.9,2.3,4.2c0.9,1.3,1.9,2.6,3,3.7c1.1,1.1,2.4,2.2,3.7,3c1.3,0.9,2.8,1.7,4.2,2.3
    c1.5,0.6,3.1,1.1,4.7,1.5c1.3,0.3,2.6,0.4,4,0.5V64H33v-7.1c1.3-0.1,2.7-0.2,4-0.5c1.6-0.3,3.2-0.8,4.7-1.5
    c1.5-0.6,2.9-1.4,4.2-2.3c1.3-0.9,2.6-1.9,3.7-3c1.1-1.1,2.2-2.4,3-3.7c0.9-1.3,1.7-2.8,2.3-4.2c0.6-1.5,1.1-3.1,1.5-4.7
    C56.7,35.7,56.8,34.4,56.9,33z M54.7,30.9h-9.5c-0.1-1.4-0.4-2.8-1-4.1c-0.7-1.6-1.6-3-2.8-4.2c-1.2-1.2-2.6-2.2-4.2-2.8
    c-1.3-0.6-2.7-0.9-4.1-1V9.3C44.7,9.8,54.1,19.3,54.7,30.9z M43.3,33c-0.5,5.4-4.8,9.8-10.3,10.3v-4H31v4
    c-5.4-0.5-9.8-4.8-10.3-10.3h4v-2.1h-4c0.5-5.4,4.8-9.8,10.3-10.3v4H33v-4c5.4,0.5,9.8,4.8,10.3,10.3h-4V33H43.3z M31,9.3v9.5
    c-1.4,0.1-2.8,0.4-4.1,1c-1.6,0.7-3,1.6-4.2,2.8c-1.2,1.2-2.2,2.6-2.8,4.2c-0.6,1.3-0.9,2.7-1,4.1H9.3C9.9,19.3,19.3,9.8,31,9.3z
    M9.3,33h9.5c0.1,1.4,0.4,2.8,1,4.1c0.7,1.6,1.6,3,2.8,4.2c1.2,1.2,2.6,2.2,4.2,2.8c1.3,0.6,2.7,0.9,4.1,1v9.5
    C19.3,54.1,9.9,44.7,9.3,33z M33,54.6v-9.5c1.4-0.1,2.8-0.4,4.1-1c1.6-0.7,3-1.6,4.2-2.8c1.2-1.2,2.2-2.6,2.8-4.2
    c0.6-1.3,0.9-2.7,1-4.1h9.5C54.1,44.7,44.7,54.1,33,54.6z"/>
</svg>
